<svg xmlns="http://www.w3.org/2000/svg" width="1120" height="530" viewBox="0 0 1120 530">
<title>Shock-recovery comparison</title>
<rect width="100%" height="100%" fill="white"/>
<style>text{font-family:Arial,sans-serif;fill:#172033}.axis{stroke:#334155;stroke-width:1}.grid{stroke:#e2e8f0;stroke-width:1}.label{font-size:12px}.small{font-size:10px}.title{font-size:18px;font-weight:700}.panel{font-size:14px;font-weight:700}</style>
<text x="560.0" y="32.0" class="title" text-anchor="middle">Shock response at occupancy density 0.30</text>
<line x1="215" y1="58" x2="239" y2="58" stroke="#2563eb" stroke-width="3"/>
<text x="245.0" y="62.0" class="small" >1 lane, reactive</text>
<line x1="405" y1="58" x2="429" y2="58" stroke="#7c3aed" stroke-width="3"/>
<text x="435.0" y="62.0" class="small" >1 lane, anticipatory</text>
<line x1="595" y1="58" x2="619" y2="58" stroke="#059669" stroke-width="3"/>
<text x="625.0" y="62.0" class="small" >2 lane, reactive</text>
<line x1="785" y1="58" x2="809" y2="58" stroke="#dc2626" stroke-width="3"/>
<text x="815.0" y="62.0" class="small" >2 lane, anticipatory</text>
<line class="axis" x1="85" y1="445" x2="535" y2="445"/>
<line class="axis" x1="85" y1="95" x2="85" y2="445"/>
<text x="310.0" y="483.0" class="label" text-anchor="middle">AV share</text>
<text x="43.0" y="270.0" class="label" text-anchor="middle" transform="rotate(-90 43 270.0)">Maximum stopped fraction</text>
<text x="85.0" y="81.0" class="panel" >Maximum stopped fraction</text>
<line class="grid" x1="85" y1="445.0" x2="535" y2="445.0"/>
<text x="77.0" y="449.0" class="small" text-anchor="end">0%</text>
<line class="grid" x1="85" y1="375.0" x2="535" y2="375.0"/>
<text x="77.0" y="379.0" class="small" text-anchor="end">20%</text>
<line class="grid" x1="85" y1="305.0" x2="535" y2="305.0"/>
<text x="77.0" y="309.0" class="small" text-anchor="end">40%</text>
<line class="grid" x1="85" y1="235.0" x2="535" y2="235.0"/>
<text x="77.0" y="239.0" class="small" text-anchor="end">60%</text>
<line class="grid" x1="85" y1="165.0" x2="535" y2="165.0"/>
<text x="77.0" y="169.0" class="small" text-anchor="end">80%</text>
<line class="grid" x1="85" y1="95.0" x2="535" y2="95.0"/>
<text x="77.0" y="99.0" class="small" text-anchor="end">100%</text>
<text x="85.0" y="463.0" class="small" text-anchor="middle">0%</text>
<text x="197.5" y="463.0" class="small" text-anchor="middle">25%</text>
<text x="310.0" y="463.0" class="small" text-anchor="middle">50%</text>
<text x="422.5" y="463.0" class="small" text-anchor="middle">75%</text>
<text x="535.0" y="463.0" class="small" text-anchor="middle">100%</text>
<polyline fill="none" stroke="#2563eb" stroke-width="2.5" points="85.0,270.0 197.5,273.5 310.0,289.2 422.5,307.3 535.0,375.0"/>
<circle cx="85.0" cy="270.0" r="3.5" fill="#2563eb"/>
<circle cx="197.5" cy="273.5" r="3.5" fill="#2563eb"/>
<circle cx="310.0" cy="289.2" r="3.5" fill="#2563eb"/>
<circle cx="422.5" cy="307.3" r="3.5" fill="#2563eb"/>
<circle cx="535.0" cy="375.0" r="3.5" fill="#2563eb"/>
<polyline fill="none" stroke="#7c3aed" stroke-width="2.5" points="197.5,268.8 310.0,288.1 422.5,306.8 535.0,275.8"/>
<circle cx="197.5" cy="268.8" r="3.5" fill="#7c3aed"/>
<circle cx="310.0" cy="288.1" r="3.5" fill="#7c3aed"/>
<circle cx="422.5" cy="306.8" r="3.5" fill="#7c3aed"/>
<circle cx="535.0" cy="275.8" r="3.5" fill="#7c3aed"/>
<polyline fill="none" stroke="#059669" stroke-width="2.5" points="85.0,307.6 197.5,317.0 310.0,325.1 422.5,340.3 535.0,405.9"/>
<circle cx="85.0" cy="307.6" r="3.5" fill="#059669"/>
<circle cx="197.5" cy="317.0" r="3.5" fill="#059669"/>
<circle cx="310.0" cy="325.1" r="3.5" fill="#059669"/>
<circle cx="422.5" cy="340.3" r="3.5" fill="#059669"/>
<circle cx="535.0" cy="405.9" r="3.5" fill="#059669"/>
<polyline fill="none" stroke="#dc2626" stroke-width="2.5" points="197.5,304.7 310.0,310.2 422.5,307.3 535.0,347.9"/>
<circle cx="197.5" cy="304.7" r="3.5" fill="#dc2626"/>
<circle cx="310.0" cy="310.2" r="3.5" fill="#dc2626"/>
<circle cx="422.5" cy="307.3" r="3.5" fill="#dc2626"/>
<circle cx="535.0" cy="347.9" r="3.5" fill="#dc2626"/>
<line class="axis" x1="635" y1="445" x2="1085" y2="445"/>
<line class="axis" x1="635" y1="95" x2="635" y2="445"/>
<text x="860.0" y="483.0" class="label" text-anchor="middle">AV share</text>
<text x="593.0" y="270.0" class="label" text-anchor="middle" transform="rotate(-90 593 270.0)">Recovery time (steps)</text>
<text x="635.0" y="81.0" class="panel" >Recovery time (steps)</text>
<line class="grid" x1="635" y1="445.0" x2="1085" y2="445.0"/>
<text x="627.0" y="449.0" class="small" text-anchor="end">0</text>
<line class="grid" x1="635" y1="375.0" x2="1085" y2="375.0"/>
<text x="627.0" y="379.0" class="small" text-anchor="end">6</text>
<line class="grid" x1="635" y1="305.0" x2="1085" y2="305.0"/>
<text x="627.0" y="309.0" class="small" text-anchor="end">13</text>
<line class="grid" x1="635" y1="235.0" x2="1085" y2="235.0"/>
<text x="627.0" y="239.0" class="small" text-anchor="end">19</text>
<line class="grid" x1="635" y1="165.0" x2="1085" y2="165.0"/>
<text x="627.0" y="169.0" class="small" text-anchor="end">26</text>
<line class="grid" x1="635" y1="95.0" x2="1085" y2="95.0"/>
<text x="627.0" y="99.0" class="small" text-anchor="end">32</text>
<text x="635.0" y="463.0" class="small" text-anchor="middle">0%</text>
<text x="747.5" y="463.0" class="small" text-anchor="middle">25%</text>
<text x="860.0" y="463.0" class="small" text-anchor="middle">50%</text>
<text x="972.5" y="463.0" class="small" text-anchor="middle">75%</text>
<text x="1085.0" y="463.0" class="small" text-anchor="middle">100%</text>
<polyline fill="none" stroke="#2563eb" stroke-width="2.5" points="635.0,132.5 747.5,158.5 860.0,185.5 972.5,170.3 1085.0,196.3"/>
<circle cx="635.0" cy="132.5" r="3.5" fill="#2563eb"/>
<circle cx="747.5" cy="158.5" r="3.5" fill="#2563eb"/>
<circle cx="860.0" cy="185.5" r="3.5" fill="#2563eb"/>
<circle cx="972.5" cy="170.3" r="3.5" fill="#2563eb"/>
<circle cx="1085.0" cy="196.3" r="3.5" fill="#2563eb"/>
<polyline fill="none" stroke="#7c3aed" stroke-width="2.5" points="747.5,157.4 860.0,189.8 972.5,188.7 1085.0,177.9"/>
<circle cx="747.5" cy="157.4" r="3.5" fill="#7c3aed"/>
<circle cx="860.0" cy="189.8" r="3.5" fill="#7c3aed"/>
<circle cx="972.5" cy="188.7" r="3.5" fill="#7c3aed"/>
<circle cx="1085.0" cy="177.9" r="3.5" fill="#7c3aed"/>
<polyline fill="none" stroke="#059669" stroke-width="2.5" points="635.0,202.8 747.5,192.0 860.0,220.1 972.5,223.3 1085.0,228.7"/>
<circle cx="635.0" cy="202.8" r="3.5" fill="#059669"/>
<circle cx="747.5" cy="192.0" r="3.5" fill="#059669"/>
<circle cx="860.0" cy="220.1" r="3.5" fill="#059669"/>
<circle cx="972.5" cy="223.3" r="3.5" fill="#059669"/>
<circle cx="1085.0" cy="228.7" r="3.5" fill="#059669"/>
<polyline fill="none" stroke="#dc2626" stroke-width="2.5" points="747.5,200.6 860.0,226.6 972.5,171.4 1085.0,227.7"/>
<circle cx="747.5" cy="200.6" r="3.5" fill="#dc2626"/>
<circle cx="860.0" cy="226.6" r="3.5" fill="#dc2626"/>
<circle cx="972.5" cy="171.4" r="3.5" fill="#dc2626"/>
<circle cx="1085.0" cy="227.7" r="3.5" fill="#dc2626"/>
</svg>
